<svg version="1.1" xmlns="http://www.w3.org/2000/svg" xmlns:xlink="http://www.w3.org/1999/xlink" width="40px" height="40px" viewBox="0,0,256,256"><g transform="translate(5.12,5.12) scale(0.96,0.96)"><g fill="none" fill-rule="evenodd" stroke="none" stroke-width="1" stroke-linecap="butt" stroke-linejoin="miter" stroke-miterlimit="10" stroke-dasharray="" stroke-dashoffset="0" font-family="none" font-weight="none" font-size="none" text-anchor="none" style="mix-blend-mode: normal"><g transform="translate(-0.65,-0.0125) scale(6.4,6.4)"><g id="surface1"><path d="M8.74609,8.94531l1.25,0.07422l0.05469,8.23828l0.05469,8.24219l-0.00391,-8.30078v-8.30078l-1.30078,-0.01172l-1.30078,-0.01562l1.24609,0.07422M29.89063,9.05078c-0.05078,0.13672 -0.07031,3.94141 -0.03906,8.44922l0.05469,8.19922l0.09375,-16.67969l1.35156,-0.07031l1.34766,-0.07031l-1.35547,-0.03906c-0.93359,-0.02734 -1.38672,0.03906 -1.45312,0.21094M25.54688,11.54297l1.44922,0.07422l0.05469,6.19141l0.05859,6.19141l-0.00781,-12.5l-3,-0.03125l1.44531,0.07422M12.88672,18.66016c-0.05469,0.14453 -0.07031,1.42578 -0.03516,2.85156l0.0625,2.58984l0.08594,-5.48437l1.44922,-0.07031l1.44922,-0.06641l-1.45313,-0.03906c-1.04297,-0.03125 -1.48437,0.03125 -1.55859,0.21875" fill="#8c8c8c"></path><path d="M7.19922,18.08203v9.08203l1.94922,1.09766c1.07422,0.60547 3.39062,1.92969 5.15234,2.94141c1.75781,1.01563 3.60547,2.07422 4.09766,2.35156c0.49609,0.28125 1.05859,0.60547 1.25,0.72656c0.25391,0.15234 0.44922,0.15234 0.70312,0c0.19141,-0.12109 0.75391,-0.44531 1.25,-0.72266c0.49219,-0.27734 2.42969,-1.38672 4.29688,-2.46484c1.87109,-1.07812 4.1875,-2.40234 5.15234,-2.94531l1.75,-0.98047v-18.16797h-2.80078v16.59375l-0.75,0.48438c-0.41406,0.26563 -2.05469,1.22656 -3.64844,2.13281c-1.59766,0.91016 -3.50781,2 -4.25,2.42578l-1.35156,0.76953l-1.35156,-0.76953c-0.74219,-0.42578 -2.65234,-1.51562 -4.25,-2.42578c-1.59375,-0.90625 -3.23438,-1.86719 -3.64844,-2.13281l-0.75,-0.48437v-16.59375h-2.80078v9.08203M24.19922,18.61719c0,4.07422 0.07813,6.98828 0.17969,6.94922c0.10156,-0.03516 0.72656,-0.38281 1.39453,-0.76562l1.21484,-0.69922l0.00391,-6.25l0.00781,-6.25h-2.80078v7.01563M18.60156,21.05469v6.25391l0.69922,0.37891c0.68359,0.36719 0.71484,0.36719 1.39844,0l0.69922,-0.37891v-12.50781h-2.79688v6.25391M13.00391,21.35156v2.75l1.25,0.69922c0.68359,0.38281 1.3125,0.73047 1.39453,0.76563c0.08203,0.03516 0.15234,-1.51562 0.15234,-3.44922v-3.51563h-2.80078l0.00391,2.75" fill="#f3f3f3"></path><path d="M0,20v20.00391l20.05078,-0.05469l20.05078,-0.05078l0.10156,-39.89844h-40.20312v20M0.09766,20.10156c0,11 0.02344,15.52734 0.05078,10.0625c0.03125,-5.46094 0.03125,-14.46094 0,-20c-0.02734,-5.53516 -0.05078,-1.0625 -0.05078,9.9375M7.29688,9.03906c-0.05469,0.14453 -0.07812,4.30469 -0.05078,9.24219l0.05469,8.98438l0.59766,0.33984c0.33203,0.1875 1.41016,0.8125 2.40234,1.39063c0.98828,0.57422 2.25,1.29688 2.80078,1.60547c0.54688,0.3125 2.33984,1.33594 3.98047,2.28125l2.98438,1.71484l0.91797,-0.57422c0.79688,-0.5 3.60938,-2.125 6.11719,-3.53516c0.4375,-0.24609 1.87891,-1.07031 3.19922,-1.82812l2.39844,-1.37891v-18.38281h-2.80078l-0.10156,16.82812l-1.25,0.70313c-0.68359,0.38672 -2.84375,1.61719 -4.79297,2.73437c-1.94922,1.12109 -3.63672,2.03516 -3.75391,2.03516c-0.11719,0 -1.80469,-0.91406 -3.75391,-2.03516c-1.94922,-1.11719 -4.10937,-2.34766 -4.79297,-2.73437l-1.25,-0.70313l-0.10156,-16.82812l-1.35547,-0.05859c-0.96484,-0.04297 -1.37891,0.01563 -1.44922,0.19922M24.19922,18.49219c0,3.91016 0.07031,7.10547 0.15234,7.10547c0.08203,-0.00391 0.73438,-0.34766 1.44922,-0.76172l1.30078,-0.75781v-12.57812l-1.45312,-0.05859l-1.44922,-0.05859v7.10938M18.60156,21.08203v6.27734l1.39844,0.82813l1.39844,-0.82812v-12.55859h-2.79688v6.28125M12.88672,18.66016c-0.05469,0.14453 -0.07422,1.42188 -0.04297,2.83984l0.05469,2.57813l1.30078,0.75781c0.71484,0.41406 1.36719,0.75781 1.44922,0.76172c0.08203,0 0.15234,-1.61719 0.15234,-3.59766v-3.60156h-1.40625c-0.97266,0 -1.4375,0.08203 -1.50781,0.26172" fill="#2c2c2c"></path></g></g></g></g></svg>